<?xml version="1.0" encoding="UTF-8" ?>
<!DOCTYPE svg PUBLIC "-//W3C//DTD SVG 1.1//EN" "http://www.w3.org/Graphics/SVG/1.1/DTD/svg11.dtd">
<svg width="403pt" height="403pt" viewBox="0 0 403 403" version="1.1" xmlns="http://www.w3.org/2000/svg">
<g id="#202225ff">
<path fill="#202225" opacity="1.00" d=" M 191.29 87.32 C 193.02 85.97 194.72 84.28 196.96 83.90 C 199.06 85.10 200.36 87.28 202.09 88.93 C 207.07 94.28 213.99 97.28 220.96 99.03 C 226.84 100.70 233.40 101.55 238.05 105.89 C 242.63 110.37 243.83 117.22 242.91 123.35 C 251.54 125.80 259.65 130.77 264.65 138.37 C 270.24 146.30 271.33 156.64 269.23 165.93 C 266.69 172.14 261.06 176.86 254.60 178.53 C 252.54 178.90 249.21 180.20 249.51 176.80 C 253.68 173.69 259.36 172.87 262.80 168.74 C 266.05 165.01 266.57 159.77 266.24 155.03 C 265.66 147.43 262.12 139.66 255.57 135.42 C 249.89 131.74 242.40 130.55 236.05 133.14 C 231.90 134.72 227.89 137.43 223.24 136.84 C 223.27 136.23 223.33 135.02 223.36 134.41 C 227.42 131.70 232.59 130.71 236.00 127.01 C 240.63 122.29 239.81 114.14 235.59 109.43 C 232.52 106.22 227.98 105.23 223.85 104.10 C 217.34 102.52 210.69 100.75 205.18 96.76 C 202.03 94.80 198.99 91.76 195.00 92.00 C 191.16 92.39 188.68 95.79 186.70 98.75 C 183.74 103.54 181.25 109.40 182.73 115.10 C 184.03 119.96 189.09 121.96 193.00 124.33 C 192.60 125.42 192.21 126.50 191.82 127.59 C 188.95 126.42 185.89 125.45 183.54 123.36 C 181.42 121.42 179.85 119.01 177.95 116.89 C 177.44 116.90 176.43 116.92 175.92 116.93 C 176.59 116.77 177.93 116.46 178.60 116.30 C 176.69 105.06 183.12 94.46 191.29 87.32 Z" />
<path fill="#202225" opacity="1.00" d=" M 302.70 113.01 C 305.00 110.52 307.47 113.42 308.83 115.37 C 309.59 116.82 307.83 117.86 307.22 118.95 C 305.51 117.17 303.00 115.68 302.70 113.01 Z" />
<path fill="#202225" opacity="1.00" d=" M 317.47 112.47 C 318.43 112.02 319.45 112.13 320.52 112.80 C 321.09 115.67 318.09 117.41 315.97 118.63 C 312.58 116.99 315.53 113.81 317.47 112.47 Z" />
<path fill="#202225" opacity="1.00" d=" M 159.75 118.93 C 163.45 117.51 167.32 116.62 171.18 115.76 C 171.47 116.38 172.07 117.64 172.37 118.27 C 168.20 121.40 162.70 121.64 158.27 124.26 C 153.09 127.25 149.78 133.10 149.69 139.07 C 149.41 146.33 153.97 153.33 160.43 156.49 C 163.89 158.18 167.62 159.19 171.25 160.45 C 170.89 161.21 170.18 162.73 169.82 163.49 C 164.52 162.62 159.41 160.78 154.07 160.14 C 142.61 158.88 130.72 167.40 129.10 179.00 C 127.65 186.31 130.59 193.37 133.36 199.97 C 129.08 202.38 124.72 204.73 121.04 208.01 C 113.27 214.83 108.21 224.66 107.24 234.95 C 106.20 246.69 110.62 258.75 118.94 267.08 C 127.25 275.62 139.19 280.25 151.06 280.04 C 164.86 279.81 178.57 277.42 191.85 273.77 C 199.85 271.62 207.48 268.23 215.61 266.54 C 225.79 264.25 236.28 263.57 246.69 264.19 C 246.74 265.30 246.80 266.40 246.86 267.52 C 244.15 267.90 241.35 267.97 238.77 268.93 C 235.22 270.82 235.44 277.21 239.32 278.60 C 242.73 279.74 246.38 279.68 249.93 279.89 C 260.54 280.47 271.96 280.31 281.13 274.18 C 296.80 264.74 303.67 243.06 295.44 226.56 C 293.93 223.25 289.88 221.22 286.39 222.60 C 282.53 224.42 279.97 228.19 276.07 229.97 C 275.49 229.66 274.35 229.05 273.77 228.75 C 275.91 224.72 279.97 222.23 282.48 218.47 C 285.80 213.69 286.73 207.68 286.61 201.97 C 286.41 194.76 284.53 187.51 280.73 181.35 C 278.59 177.81 275.52 174.79 274.15 170.82 C 275.46 169.54 276.92 169.47 278.03 171.00 C 285.56 178.73 289.84 189.35 290.59 200.06 C 290.89 203.67 290.24 207.31 290.77 210.91 C 291.71 213.79 293.91 216.01 295.58 218.48 C 302.45 228.10 304.49 240.67 301.84 252.11 C 299.96 259.02 305.73 266.79 313.00 266.45 C 329.33 266.45 345.67 266.46 362.01 266.43 C 365.72 266.49 369.62 265.96 373.10 267.59 C 372.73 268.33 372.01 269.81 371.64 270.54 C 346.41 270.57 321.18 270.54 295.95 270.55 C 291.75 270.10 288.94 273.50 285.93 275.79 C 278.31 281.64 268.57 284.40 259.01 284.03 C 239.66 283.82 219.71 282.71 201.64 275.14 C 185.28 280.33 168.25 283.90 151.03 284.03 C 140.03 284.27 128.88 280.73 120.36 273.69 C 118.28 271.94 115.86 270.28 112.99 270.55 C 78.96 270.52 44.94 270.62 10.91 270.51 C 8.64 270.68 6.89 268.66 8.67 266.73 C 11.75 266.22 14.89 266.48 17.99 266.44 C 42.99 266.46 67.99 266.44 92.99 266.45 C 98.05 266.70 103.17 263.59 104.79 258.71 C 106.09 255.54 105.20 252.12 104.42 248.96 C 100.50 234.02 105.51 217.25 116.69 206.67 C 119.35 203.92 122.76 201.93 125.03 198.81 C 126.89 195.88 125.91 192.29 125.36 189.12 C 123.07 178.08 127.50 166.21 135.93 158.87 C 139.66 155.45 144.24 153.19 148.86 151.24 C 146.08 146.30 144.89 140.47 146.12 134.89 C 147.67 127.77 152.93 121.53 159.75 118.93 Z" />
<path fill="#202225" opacity="1.00" d=" M 94.49 119.61 C 99.59 116.81 106.08 122.66 103.91 128.00 C 102.54 132.82 95.61 134.46 92.36 130.56 C 88.99 127.41 90.35 121.36 94.49 119.61 Z" />
<path fill="#202225" opacity="1.00" d=" M 305.48 124.43 C 306.81 122.62 309.21 124.05 309.13 126.01 C 308.05 127.63 306.62 129.02 304.98 130.05 C 301.26 129.53 303.20 125.56 305.48 124.43 Z" />
<path fill="#202225" opacity="1.00" d=" M 314.80 123.83 C 317.68 122.84 319.30 125.98 321.22 127.50 C 320.40 128.58 319.46 129.55 318.39 130.36 C 316.91 128.38 313.48 126.73 314.80 123.83 Z" />
<path fill="#202225" opacity="1.00" d=" M 54.50 159.50 C 55.56 157.81 56.71 159.91 57.28 160.82 C 58.47 163.16 60.97 164.18 62.77 165.95 C 59.75 167.74 57.45 170.20 55.58 173.14 C 53.09 170.54 51.06 167.49 47.99 165.44 C 50.82 164.20 53.08 162.26 54.50 159.50 Z" />
<path fill="#202225" opacity="1.00" d=" M 325.95 175.94 C 327.11 174.42 327.21 170.96 329.92 172.11 C 330.56 173.39 330.91 174.78 331.38 176.13 C 332.91 176.77 334.76 176.97 335.88 178.35 C 335.63 180.62 333.05 180.70 331.48 181.69 C 330.87 182.96 330.48 184.32 330.01 185.64 C 329.06 185.52 328.11 185.39 327.18 185.26 C 326.88 183.98 326.61 182.70 326.32 181.42 C 324.65 180.58 320.93 180.80 322.04 177.96 C 323.29 177.20 324.68 176.68 325.95 175.94 Z" />
<path fill="#202225" opacity="1.00" d=" M 159.25 194.49 C 166.59 194.25 172.12 202.93 168.47 209.42 C 165.31 216.74 153.68 216.94 150.20 209.79 C 146.31 203.28 151.68 194.23 159.25 194.49 Z" />
<path fill="#202225" opacity="1.00" d=" M 251.24 194.48 C 258.66 194.14 264.22 203.07 260.48 209.55 C 257.33 216.45 246.45 216.98 242.65 210.41 C 238.08 204.02 243.43 194.26 251.24 194.48 Z" />
<path fill="#202225" opacity="1.00" d=" M 188.16 230.45 C 196.70 223.34 209.93 222.03 218.98 228.90 C 220.67 229.65 220.23 231.47 219.81 232.89 C 215.26 232.29 211.61 228.80 206.93 228.63 C 201.76 227.86 196.87 229.95 192.42 232.34 C 190.63 233.86 189.51 231.30 188.16 230.45 Z" />
<path fill="#202225" opacity="1.00" d=" M 266.99 228.93 C 269.36 227.62 271.78 228.84 273.82 230.14 C 271.44 232.09 268.49 232.98 265.50 233.41 C 265.72 231.95 265.01 229.38 266.99 228.93 Z" />
<path fill="#202225" opacity="1.00" d=" M 384.40 266.61 C 388.82 266.46 393.50 265.78 397.78 267.17 C 397.81 267.89 397.87 269.32 397.90 270.04 C 393.38 270.97 388.68 270.63 384.10 270.39 C 381.52 270.32 381.81 266.23 384.40 266.61 Z" />
</g>
<g id="#4f545cff">
<path fill="#4f545c" opacity="1.00" d=" M 186.70 98.75 C 188.68 95.79 191.16 92.39 195.00 92.00 C 198.99 91.76 202.03 94.80 205.18 96.76 C 210.69 100.75 217.34 102.52 223.85 104.10 C 227.98 105.23 232.52 106.22 235.59 109.43 C 239.81 114.14 240.63 122.29 236.00 127.01 C 232.59 130.71 227.42 131.70 223.36 134.41 C 223.33 135.02 223.27 136.23 223.24 136.84 C 227.89 137.43 231.90 134.72 236.05 133.14 C 242.40 130.55 249.89 131.74 255.57 135.42 C 262.12 139.66 265.66 147.43 266.24 155.03 C 266.57 159.77 266.05 165.01 262.80 168.74 C 259.36 172.87 253.68 173.69 249.51 176.80 C 249.21 180.20 252.54 178.90 254.60 178.53 C 261.06 176.86 266.69 172.14 269.23 165.93 C 270.68 167.09 272.15 168.24 273.64 169.37 L 274.15 170.82 C 275.52 174.79 278.59 177.81 280.73 181.35 C 284.53 187.51 286.41 194.76 286.61 201.97 C 286.73 207.68 285.80 213.69 282.48 218.47 C 279.97 222.23 275.91 224.72 273.77 228.75 C 274.35 229.05 275.49 229.66 276.07 229.97 C 279.97 228.19 282.53 224.42 286.39 222.60 C 289.88 221.22 293.93 223.25 295.44 226.56 C 303.67 243.06 296.80 264.74 281.13 274.18 C 271.96 280.31 260.54 280.47 249.93 279.89 C 246.38 279.68 242.73 279.74 239.32 278.60 C 235.44 277.21 235.22 270.82 238.77 268.93 C 241.35 267.97 244.15 267.90 246.86 267.52 C 246.80 266.40 246.74 265.30 246.69 264.19 C 236.28 263.57 225.79 264.25 215.61 266.54 C 207.48 268.23 199.85 271.62 191.85 273.77 C 178.57 277.42 164.86 279.81 151.06 280.04 C 139.19 280.25 127.25 275.62 118.94 267.08 C 110.62 258.75 106.20 246.69 107.24 234.95 C 108.21 224.66 113.27 214.83 121.04 208.01 C 124.72 204.73 129.08 202.38 133.36 199.97 C 130.59 193.37 127.65 186.31 129.10 179.00 C 130.72 167.40 142.61 158.88 154.07 160.14 C 159.41 160.78 164.52 162.62 169.82 163.49 C 170.18 162.73 170.89 161.21 171.25 160.45 C 167.62 159.19 163.89 158.18 160.43 156.49 C 153.97 153.33 149.41 146.33 149.69 139.07 C 149.78 133.10 153.09 127.25 158.27 124.26 C 162.70 121.64 168.20 121.40 172.37 118.27 C 172.76 117.96 173.55 117.35 173.94 117.05 C 174.43 117.02 175.43 116.96 175.92 116.93 C 176.43 116.92 177.44 116.90 177.95 116.89 C 179.85 119.01 181.42 121.42 183.54 123.36 C 185.89 125.45 188.95 126.42 191.82 127.59 C 192.21 126.50 192.60 125.42 193.00 124.33 C 189.09 121.96 184.03 119.96 182.73 115.10 C 181.25 109.40 183.74 103.54 186.70 98.75 M 159.25 194.49 C 151.68 194.23 146.31 203.28 150.20 209.79 C 153.68 216.94 165.31 216.74 168.47 209.42 C 172.12 202.93 166.59 194.25 159.25 194.49 M 251.24 194.48 C 243.43 194.26 238.08 204.02 242.65 210.41 C 246.45 216.98 257.33 216.45 260.48 209.55 C 264.22 203.07 258.66 194.14 251.24 194.48 M 188.16 230.45 C 189.51 231.30 190.63 233.86 192.42 232.34 C 196.87 229.95 201.76 227.86 206.93 228.63 C 211.61 228.80 215.26 232.29 219.81 232.89 C 220.23 231.47 220.67 229.65 218.98 228.90 C 209.93 222.03 196.70 223.34 188.16 230.45 M 266.99 228.93 C 265.01 229.38 265.72 231.95 265.50 233.41 C 268.49 232.98 271.44 232.09 273.82 230.14 C 271.78 228.84 269.36 227.62 266.99 228.93 Z" />
</g>
</svg>
