<?xml version="1.0" encoding="UTF-8" ?>
<!DOCTYPE svg PUBLIC "-//W3C//DTD SVG 1.1//EN" "http://www.w3.org/Graphics/SVG/1.1/DTD/svg11.dtd">
<svg width="403pt" height="403pt" viewBox="0 0 403 403" version="1.1" xmlns="http://www.w3.org/2000/svg">
<g id="#202225ff">
<path fill="#202225" opacity="1.00" d=" M 187.20 91.22 C 190.00 88.40 192.85 85.10 196.82 83.96 C 201.88 87.57 205.57 93.14 211.46 95.55 C 216.58 97.85 222.07 99.16 227.52 100.45 C 233.19 102.06 239.14 105.09 241.63 110.77 C 242.64 114.90 242.50 119.21 243.44 123.34 C 251.78 126.49 260.70 130.69 264.85 139.11 C 270.28 146.77 270.57 156.59 269.83 165.60 C 266.25 173.04 258.89 178.90 250.39 178.80 C 250.34 178.22 250.25 177.05 250.21 176.47 C 253.65 173.54 258.30 172.58 261.91 169.92 C 267.14 164.57 266.69 156.26 265.00 149.53 C 263.23 139.73 254.09 131.68 243.99 132.03 C 236.58 130.68 230.93 137.78 223.47 136.64 C 223.40 136.06 223.26 134.92 223.19 134.35 C 228.07 131.06 234.63 129.77 237.87 124.47 C 239.80 119.57 239.32 113.33 235.61 109.37 C 229.34 103.80 220.46 104.36 213.14 101.03 C 207.97 99.03 203.80 95.30 198.96 92.72 C 196.14 91.82 192.47 91.82 190.22 94.02 C 186.74 98.05 184.16 102.86 182.77 108.00 C 181.85 111.50 182.07 115.57 184.34 118.53 C 186.84 120.98 190.11 122.41 192.91 124.46 C 192.79 125.01 192.54 126.09 192.41 126.63 C 189.43 127.14 186.48 125.77 184.25 123.88 C 181.54 121.52 179.85 117.81 176.12 116.83 C 176.93 114.88 177.50 112.85 177.83 110.75 C 179.12 103.56 182.62 96.85 187.20 91.22 Z" />
<path fill="#202225" opacity="1.00" d=" M 304.23 112.24 C 306.04 111.75 307.48 114.24 309.02 115.11 C 309.03 115.80 309.05 117.20 309.06 117.90 C 306.46 119.73 305.15 116.92 303.70 115.21 C 302.68 114.34 302.92 112.65 304.23 112.24 Z" />
<path fill="#202225" opacity="1.00" d=" M 317.31 111.91 C 318.73 112.15 320.09 112.62 321.47 113.03 C 320.14 115.63 318.24 118.04 315.05 118.08 C 314.91 115.77 315.22 113.31 317.31 111.91 Z" />
<path fill="#202225" opacity="1.00" d=" M 169.40 116.43 C 170.78 115.98 172.33 116.54 172.48 118.15 C 166.72 121.80 159.30 122.46 154.13 127.15 C 147.49 135.30 148.75 149.43 158.04 155.12 C 161.30 157.74 165.49 158.38 169.38 159.47 C 171.08 159.57 170.80 161.64 170.65 162.80 C 166.65 162.81 162.72 162.04 158.90 160.93 C 151.72 158.96 143.83 160.38 137.77 164.68 C 132.41 168.67 128.81 175.18 129.06 181.96 C 128.48 188.22 132.09 193.75 132.90 199.82 C 129.92 203.14 124.95 204.46 121.71 207.71 C 106.98 219.27 103.22 241.55 112.03 257.86 C 118.99 271.02 133.47 279.17 148.13 279.95 C 166.25 279.50 184.45 276.70 201.55 270.56 C 215.98 265.69 231.18 262.43 246.48 264.17 C 246.70 265.36 246.82 266.57 246.82 267.79 C 243.08 268.70 238.13 267.44 236.00 271.41 C 234.42 275.19 237.71 278.83 241.27 279.10 C 254.84 280.77 269.93 281.54 281.85 273.78 C 291.94 267.30 298.14 255.77 298.94 243.92 C 298.72 237.03 297.60 229.90 293.84 223.98 C 291.98 222.13 288.95 222.21 286.59 222.39 C 281.93 223.84 279.57 230.01 274.34 229.69 C 274.37 229.16 274.44 228.09 274.48 227.56 C 277.43 223.49 281.22 220.08 284.01 215.88 C 285.94 212.97 285.88 209.22 286.06 205.90 C 286.33 199.42 285.75 192.79 283.44 186.69 C 280.77 180.94 276.89 175.88 273.97 170.28 C 275.74 170.09 277.90 169.98 278.99 171.72 C 283.20 177.29 287.37 183.22 289.06 190.12 C 291.38 196.89 290.44 204.14 291.11 211.14 C 294.00 216.42 297.74 221.21 300.39 226.63 C 304.21 235.57 303.04 245.46 302.27 254.87 C 300.86 259.69 304.59 264.25 308.88 265.77 C 329.46 266.56 350.10 265.54 370.68 266.06 C 373.05 266.78 372.01 269.26 371.87 271.05 C 347.02 270.99 322.17 271.06 297.32 270.89 C 292.70 269.36 289.57 273.20 286.28 275.46 C 280.75 279.66 274.25 282.76 267.24 283.31 C 245.33 285.22 222.31 284.20 201.93 275.16 C 194.08 277.41 186.40 280.45 178.15 281.06 C 166.44 283.77 154.32 284.84 142.33 283.81 C 135.23 281.96 128.09 279.43 122.23 274.89 C 119.16 272.80 115.91 269.89 111.74 271.04 C 77.92 270.89 44.09 271.06 10.28 271.04 C 7.26 271.40 6.64 266.63 9.50 266.09 C 38.25 265.75 67.01 266.21 95.76 265.98 C 102.33 265.74 106.32 258.32 104.90 252.32 C 102.83 243.74 101.61 234.44 104.98 226.04 C 107.28 217.50 112.58 210.02 119.29 204.36 C 121.63 201.99 124.85 199.88 125.61 196.42 C 125.63 189.52 124.45 182.56 125.48 175.70 C 128.68 164.32 137.70 154.62 149.09 151.21 C 147.57 147.86 145.46 144.59 145.97 140.68 C 144.91 133.10 149.09 125.44 155.28 121.24 C 159.27 118.03 164.53 117.37 169.40 116.43 Z" />
<path fill="#202225" opacity="1.00" d=" M 94.73 119.14 C 96.77 119.51 100.18 117.89 101.79 120.11 C 104.67 123.14 105.28 128.92 101.32 131.42 C 97.72 135.92 88.60 130.90 90.89 125.06 C 90.41 122.37 92.57 120.31 94.73 119.14 Z" />
<path fill="#202225" opacity="1.00" d=" M 305.59 124.22 C 306.75 124.11 307.92 124.06 309.09 124.08 C 308.63 126.36 307.36 128.33 305.96 130.15 C 305.14 130.06 303.51 129.88 302.69 129.79 C 303.09 127.74 303.10 124.89 305.59 124.22 Z" />
<path fill="#202225" opacity="1.00" d=" M 314.73 124.06 C 316.00 124.16 317.27 124.28 318.54 124.42 C 319.47 125.90 320.43 127.37 321.36 128.85 C 319.96 129.31 318.56 129.76 317.16 130.18 C 316.40 128.12 315.43 126.14 314.73 124.06 Z" />
<path fill="#202225" opacity="1.00" d=" M 54.54 159.51 C 55.02 159.37 56.00 159.07 56.48 158.93 C 56.97 162.26 59.64 164.03 62.52 165.24 C 61.96 166.71 60.93 167.82 59.54 168.53 C 57.45 169.55 56.98 173.33 54.25 172.86 C 53.07 169.83 51.02 167.67 48.26 166.00 C 50.98 164.50 52.55 161.75 54.54 159.51 Z" />
<path fill="#202225" opacity="1.00" d=" M 327.13 172.10 C 327.88 172.02 329.37 171.85 330.11 171.77 C 330.48 173.46 330.85 175.17 331.19 176.88 C 332.51 176.90 333.83 176.91 335.15 176.93 C 335.30 178.15 335.54 179.36 335.86 180.56 C 334.28 180.79 332.70 180.95 331.12 181.12 C 330.94 182.70 330.79 184.28 330.56 185.86 C 329.36 185.55 328.15 185.30 326.93 185.15 C 326.91 183.83 326.89 182.51 326.88 181.19 C 325.16 180.85 323.46 180.48 321.77 180.11 C 321.85 179.37 322.02 177.88 322.10 177.13 C 323.61 176.92 325.14 176.77 326.66 176.66 C 326.77 175.14 326.92 173.62 327.13 172.10 Z" />
<path fill="#202225" opacity="1.00" d=" M 155.81 195.34 C 158.71 195.05 161.97 194.28 164.71 195.84 C 167.19 198.28 170.28 201.05 169.07 205.11 C 169.71 210.98 163.91 216.08 158.09 215.04 C 152.66 215.03 148.25 209.34 148.98 204.03 C 148.76 200.03 151.92 196.13 155.81 195.34 Z" />
<path fill="#202225" opacity="1.00" d=" M 247.85 195.32 C 252.56 193.83 258.48 195.22 260.42 200.16 C 261.34 203.90 261.77 208.75 258.86 211.82 C 255.09 216.34 246.99 216.20 243.58 211.26 C 238.54 206.59 240.87 196.57 247.85 195.32 Z" />
<path fill="#202225" opacity="1.00" d=" M 201.55 224.45 C 207.67 223.23 214.30 225.20 219.14 229.04 C 220.73 229.95 220.16 232.99 218.20 232.93 C 213.76 231.46 209.77 228.21 204.82 228.88 C 198.97 226.75 194.88 233.99 189.43 232.54 C 189.03 231.34 188.76 229.91 190.07 229.17 C 193.57 226.95 197.38 224.92 201.55 224.45 Z" />
<path fill="#202225" opacity="1.00" d=" M 269.34 228.30 C 271.57 227.21 272.55 229.02 273.06 230.94 C 271.08 233.42 264.72 234.51 264.99 230.21 C 266.28 229.26 267.77 228.62 269.34 228.30 Z" />
<path fill="#202225" opacity="1.00" d=" M 384.53 266.14 C 388.91 266.45 394.29 264.35 398.18 267.13 C 398.28 268.70 398.42 270.54 396.44 270.87 C 392.01 271.07 387.57 271.41 383.16 270.90 C 383.03 269.16 382.14 266.67 384.53 266.14 Z" />
</g>
<g id="#4f545cff">
<path fill="#4f545c" opacity="1.00" d=" M 190.22 94.02 C 192.47 91.82 196.14 91.82 198.96 92.72 C 203.80 95.30 207.97 99.03 213.14 101.03 C 220.46 104.36 229.34 103.80 235.61 109.37 C 239.32 113.33 239.80 119.57 237.87 124.47 C 234.63 129.77 228.07 131.06 223.19 134.35 C 223.26 134.92 223.40 136.06 223.47 136.64 C 230.93 137.78 236.58 130.68 243.99 132.03 C 254.09 131.68 263.23 139.73 265.00 149.53 C 266.69 156.26 267.14 164.57 261.91 169.92 C 258.30 172.58 253.65 173.54 250.21 176.47 C 250.25 177.05 250.34 178.22 250.39 178.80 C 258.89 178.90 266.25 173.04 269.83 165.60 C 271.30 167.07 272.77 168.56 273.97 170.28 C 276.89 175.88 280.77 180.94 283.44 186.69 C 285.75 192.79 286.33 199.42 286.06 205.90 C 285.88 209.22 285.94 212.97 284.01 215.88 C 281.22 220.08 277.43 223.49 274.48 227.56 C 274.44 228.09 274.37 229.16 274.34 229.69 C 279.57 230.01 281.93 223.84 286.59 222.39 C 288.95 222.21 291.98 222.13 293.84 223.98 C 297.60 229.90 298.72 237.03 298.94 243.92 C 298.14 255.77 291.94 267.30 281.85 273.78 C 269.93 281.54 254.84 280.77 241.27 279.10 C 237.71 278.83 234.42 275.19 236.00 271.41 C 238.13 267.44 243.08 268.70 246.82 267.79 C 246.82 266.57 246.70 265.36 246.48 264.17 C 231.18 262.43 215.98 265.69 201.55 270.56 C 184.45 276.70 166.25 279.50 148.13 279.95 C 133.47 279.17 118.99 271.02 112.03 257.86 C 103.22 241.55 106.98 219.27 121.71 207.71 C 124.95 204.46 129.92 203.14 132.90 199.82 C 132.09 193.75 128.48 188.22 129.06 181.96 C 128.81 175.18 132.41 168.67 137.77 164.68 C 143.83 160.38 151.72 158.96 158.90 160.93 C 162.72 162.04 166.65 162.81 170.65 162.80 C 170.80 161.64 171.08 159.57 169.38 159.47 C 165.49 158.38 161.30 157.74 158.04 155.12 C 148.75 149.43 147.49 135.30 154.13 127.15 C 159.30 122.46 166.72 121.80 172.48 118.15 C 173.57 117.42 174.74 116.72 176.12 116.83 C 179.85 117.81 181.54 121.52 184.25 123.88 C 186.48 125.77 189.43 127.14 192.41 126.63 C 192.54 126.09 192.79 125.01 192.91 124.46 C 190.11 122.41 186.84 120.98 184.34 118.53 C 182.07 115.57 181.85 111.50 182.77 108.00 C 184.16 102.86 186.74 98.05 190.22 94.02 M 155.81 195.34 C 151.92 196.13 148.76 200.03 148.98 204.03 C 148.25 209.34 152.66 215.03 158.09 215.04 C 163.91 216.08 169.71 210.98 169.07 205.11 C 170.28 201.05 167.19 198.28 164.71 195.84 C 161.97 194.28 158.71 195.05 155.81 195.34 M 247.85 195.32 C 240.87 196.57 238.54 206.59 243.58 211.26 C 246.99 216.20 255.09 216.34 258.86 211.82 C 261.77 208.75 261.34 203.90 260.42 200.16 C 258.48 195.22 252.56 193.83 247.85 195.32 M 201.55 224.45 C 197.38 224.92 193.57 226.95 190.07 229.17 C 188.76 229.91 189.03 231.34 189.43 232.54 C 194.88 233.99 198.97 226.75 204.82 228.88 C 209.77 228.21 213.76 231.46 218.20 232.93 C 220.16 232.99 220.73 229.95 219.14 229.04 C 214.30 225.20 207.67 223.23 201.55 224.45 M 269.34 228.30 C 267.77 228.62 266.28 229.26 264.99 230.21 C 264.72 234.51 271.08 233.42 273.06 230.94 C 272.55 229.02 271.57 227.21 269.34 228.30 Z" />
</g>
</svg>
