<?xml version="1.0" encoding="UTF-8" ?>
<!DOCTYPE svg PUBLIC "-//W3C//DTD SVG 1.1//EN" "http://www.w3.org/Graphics/SVG/1.1/DTD/svg11.dtd">
<svg width="403pt" height="403pt" viewBox="0 0 403 403" version="1.1" xmlns="http://www.w3.org/2000/svg">
<g id="#202225ff">
<path fill="#202225" opacity="1.00" d=" M 178.95 106.00 C 182.33 97.20 187.63 87.55 196.82 83.98 C 201.60 87.18 204.86 92.36 210.10 94.91 C 215.37 97.44 221.04 99.02 226.74 100.24 C 232.75 101.73 238.87 104.90 241.67 110.69 C 242.80 114.86 242.47 119.23 243.38 123.43 C 251.84 126.34 260.67 130.77 264.87 139.13 C 270.24 146.81 270.67 156.63 269.79 165.65 C 266.27 173.11 258.79 178.92 250.32 178.83 C 250.30 178.23 250.24 177.05 250.21 176.46 C 253.64 173.17 259.10 172.85 262.42 169.38 C 268.02 162.71 266.44 153.07 263.76 145.51 C 260.74 137.56 252.57 131.76 243.98 132.02 C 236.48 130.32 230.99 138.08 223.48 136.62 C 223.41 136.04 223.26 134.90 223.18 134.32 C 228.04 130.99 234.67 129.95 237.86 124.51 C 239.91 119.61 239.27 113.34 235.60 109.36 C 229.33 103.73 220.41 104.42 213.10 101.01 C 208.40 99.28 204.50 96.13 200.36 93.42 C 196.28 90.63 189.80 92.24 187.92 97.01 C 184.11 102.88 179.91 111.08 183.89 117.95 C 186.15 120.97 190.03 122.16 192.97 124.40 C 192.83 124.94 192.56 126.03 192.43 126.57 C 189.43 127.35 186.54 125.60 184.21 123.92 C 181.28 121.75 180.13 117.29 176.05 116.90 C 178.50 113.81 177.42 109.50 178.95 106.00 Z" />
<path fill="#202225" opacity="1.00" d=" M 317.35 112.12 C 318.83 111.70 320.87 112.08 321.12 113.88 C 320.12 116.09 317.84 118.72 315.13 117.73 C 314.59 115.53 315.31 113.27 317.35 112.12 Z" />
<path fill="#202225" opacity="1.00" d=" M 165.30 117.26 C 167.57 117.10 171.81 114.62 172.43 118.15 C 167.10 122.37 159.08 121.99 154.15 127.13 C 147.43 135.27 148.74 149.42 158.05 155.10 C 161.46 158.11 166.10 158.41 170.26 159.60 C 170.89 160.58 171.00 161.63 170.60 162.75 C 166.90 163.01 163.24 162.31 159.77 161.12 C 149.70 157.86 137.35 161.86 131.94 171.16 C 127.66 178.16 128.39 187.15 131.52 194.45 C 131.97 196.43 133.41 198.49 132.65 200.55 C 128.97 202.88 124.96 204.74 121.69 207.68 C 112.69 215.01 107.34 226.46 107.24 238.05 C 107.44 248.22 110.66 258.74 118.02 266.02 C 125.06 274.24 135.76 278.53 146.30 279.88 C 156.33 280.24 166.32 278.69 176.22 277.20 C 194.63 274.58 211.46 265.40 230.12 264.01 C 235.58 263.82 241.06 263.85 246.52 264.20 C 246.83 265.40 246.93 266.61 246.81 267.85 C 243.30 268.61 238.72 267.27 236.52 270.79 C 234.23 273.89 236.94 278.43 240.38 278.92 C 248.25 280.30 256.29 280.24 264.25 279.83 C 275.72 278.81 286.54 272.48 292.81 262.80 C 296.10 257.33 298.25 251.16 298.93 244.81 C 298.91 237.63 297.70 230.18 293.84 224.00 C 292.03 222.08 288.92 222.26 286.58 222.41 C 281.81 223.58 279.70 230.40 274.38 229.62 C 274.38 229.09 274.39 228.02 274.39 227.49 C 277.71 223.10 282.29 219.61 284.72 214.57 C 286.48 210.40 285.93 205.70 286.10 201.30 C 286.00 194.58 284.61 187.68 281.02 181.92 C 278.87 177.92 275.30 174.68 274.06 170.24 C 275.58 170.13 277.45 169.76 278.54 171.18 C 282.93 176.86 287.28 182.98 289.06 190.07 C 291.35 196.90 290.64 204.19 291.05 211.27 C 294.12 216.69 298.15 221.59 300.69 227.32 C 304.12 236.13 303.20 245.76 302.14 254.93 C 300.95 259.74 304.60 264.13 308.80 265.77 C 329.42 266.48 350.08 265.65 370.70 266.03 C 372.98 266.83 371.99 269.26 371.87 271.04 C 346.99 270.96 322.11 271.08 297.24 270.90 C 292.64 269.35 289.47 273.07 286.30 275.47 C 280.78 279.67 274.24 282.72 267.26 283.32 C 247.55 285.02 227.12 284.32 208.26 277.79 C 205.47 276.97 202.76 274.05 199.74 275.70 C 192.55 278.63 184.97 280.31 177.27 281.14 C 168.36 283.53 159.10 284.16 149.91 284.14 C 141.54 284.94 133.65 281.37 126.37 277.72 C 121.63 275.23 117.85 269.75 111.78 271.03 C 77.94 270.93 44.10 271.02 10.26 271.05 C 7.30 271.39 6.73 266.66 9.49 266.05 C 37.95 265.88 66.43 266.05 94.90 266.05 C 103.03 266.26 107.12 256.54 104.36 249.73 C 99.60 233.38 106.36 214.98 119.30 204.34 C 121.70 202.01 124.73 199.85 125.68 196.48 C 125.66 189.28 124.09 181.93 125.69 174.82 C 129.24 163.87 137.95 154.46 149.12 151.22 C 147.57 147.87 145.31 144.63 145.95 140.67 C 144.50 129.28 154.19 118.52 165.30 117.26 Z" />
<path fill="#202225" opacity="1.00" d=" M 94.73 119.12 C 96.76 119.56 100.19 117.87 101.79 120.11 C 104.67 123.13 105.27 128.94 101.31 131.42 C 99.65 134.48 95.71 133.03 93.32 131.78 C 90.06 129.93 90.76 125.71 91.09 122.52 C 92.00 121.12 93.27 119.95 94.73 119.12 M 96.24 123.07 C 94.29 124.45 94.65 127.42 96.05 129.08 C 97.45 128.95 98.77 128.40 99.95 127.66 C 100.73 125.15 99.26 121.95 96.24 123.07 Z" />
<path fill="#202225" opacity="1.00" d=" M 305.46 124.11 C 306.56 123.97 307.67 123.96 308.78 124.09 C 309.77 127.19 306.18 130.77 303.09 129.78 C 302.56 127.51 303.27 125.19 305.46 124.11 Z" />
<path fill="#202225" opacity="1.00" d=" M 315.15 124.14 C 317.65 123.49 319.52 125.52 320.85 127.36 C 321.93 129.58 318.02 131.10 316.94 129.16 C 315.81 127.74 314.76 126.03 315.15 124.14 Z" />
<path fill="#202225" opacity="1.00" d=" M 54.25 159.05 C 56.79 158.31 57.20 161.21 58.28 162.75 C 59.72 163.82 62.67 164.30 61.94 166.74 C 60.66 168.21 58.67 168.91 57.58 170.60 C 56.60 171.55 55.97 173.61 54.23 172.89 C 53.46 171.59 52.91 170.16 52.02 168.93 C 50.95 168.05 48.89 167.75 48.98 166.00 C 48.85 164.20 50.95 163.98 52.03 163.09 C 52.96 161.85 53.51 160.39 54.25 159.05 Z" />
<path fill="#202225" opacity="1.00" d=" M 327.39 172.27 C 328.00 172.19 329.21 172.03 329.82 171.95 C 330.53 173.39 330.94 174.96 331.57 176.45 C 333.14 177.41 336.77 177.13 336.01 179.81 C 334.61 180.59 333.03 180.96 331.57 181.57 C 330.59 183.14 330.85 186.76 328.19 186.01 C 327.38 184.63 327.06 183.03 326.45 181.57 C 324.96 180.94 323.39 180.53 321.95 179.82 C 321.24 176.79 324.30 177.00 326.32 176.32 C 326.77 174.99 327.00 173.61 327.39 172.27 Z" />
<path fill="#202225" opacity="1.00" d=" M 155.79 195.34 C 158.68 195.20 161.99 194.18 164.71 195.85 C 167.17 198.30 170.36 201.03 169.07 205.12 C 169.70 210.99 163.88 216.10 158.06 215.05 C 152.67 214.99 148.21 209.32 148.97 204.01 C 148.77 200.02 151.92 196.15 155.79 195.34 Z" />
<path fill="#202225" opacity="1.00" d=" M 247.82 195.31 C 250.62 195.33 254.20 194.06 256.75 195.97 C 263.44 199.93 262.54 211.96 255.03 214.47 C 250.96 215.99 246.18 214.81 243.60 211.27 C 238.51 206.61 240.88 196.63 247.82 195.31 Z" />
<path fill="#202225" opacity="1.00" d=" M 384.52 266.10 C 388.52 265.97 392.62 265.50 396.63 266.08 C 398.92 266.68 398.79 270.46 396.47 270.91 C 392.02 271.05 387.58 271.34 383.15 270.92 C 383.01 269.17 382.17 266.69 384.52 266.10 Z" />
</g>
<g id="#4f545cff">
<path fill="#4f545c" opacity="1.00" d=" M 187.92 97.01 C 189.80 92.24 196.28 90.63 200.36 93.42 C 204.50 96.13 208.40 99.28 213.10 101.01 C 220.41 104.42 229.33 103.73 235.60 109.36 C 239.27 113.34 239.91 119.61 237.86 124.51 C 234.67 129.95 228.04 130.99 223.18 134.32 C 223.26 134.90 223.41 136.04 223.48 136.62 C 230.99 138.08 236.48 130.32 243.98 132.02 C 252.57 131.76 260.74 137.56 263.76 145.51 C 266.44 153.07 268.02 162.71 262.42 169.38 C 259.10 172.85 253.64 173.17 250.21 176.46 C 250.24 177.05 250.30 178.23 250.32 178.83 C 258.79 178.92 266.27 173.11 269.79 165.65 C 271.25 167.13 272.70 168.64 274.06 170.24 C 275.30 174.68 278.87 177.92 281.02 181.92 C 284.61 187.68 286.00 194.58 286.10 201.30 C 285.93 205.70 286.48 210.40 284.72 214.57 C 282.29 219.61 277.71 223.10 274.39 227.49 C 274.39 228.02 274.38 229.09 274.38 229.62 C 279.70 230.40 281.81 223.58 286.58 222.41 C 288.92 222.26 292.03 222.08 293.84 224.00 C 297.70 230.18 298.91 237.63 298.93 244.81 C 298.25 251.16 296.10 257.33 292.81 262.80 C 286.54 272.48 275.72 278.81 264.25 279.83 C 256.29 280.24 248.25 280.30 240.38 278.92 C 236.94 278.43 234.23 273.89 236.52 270.79 C 238.72 267.27 243.30 268.61 246.81 267.85 C 246.93 266.61 246.83 265.40 246.52 264.20 C 241.06 263.85 235.58 263.82 230.12 264.01 C 211.46 265.40 194.63 274.58 176.22 277.20 C 166.32 278.69 156.33 280.24 146.30 279.88 C 135.76 278.53 125.06 274.24 118.02 266.02 C 110.66 258.74 107.44 248.22 107.24 238.05 C 107.34 226.46 112.69 215.01 121.69 207.68 C 124.96 204.74 128.97 202.88 132.65 200.55 C 133.41 198.49 131.97 196.43 131.52 194.45 C 128.39 187.15 127.66 178.16 131.94 171.16 C 137.35 161.86 149.70 157.86 159.77 161.12 C 163.24 162.31 166.90 163.01 170.60 162.75 C 171.00 161.63 170.89 160.58 170.26 159.60 C 166.10 158.41 161.46 158.11 158.05 155.10 C 148.74 149.42 147.43 135.27 154.15 127.13 C 159.08 121.99 167.10 122.37 172.43 118.15 C 173.29 117.02 174.71 116.75 176.05 116.90 C 180.13 117.29 181.28 121.75 184.21 123.92 C 186.54 125.60 189.43 127.35 192.43 126.57 C 192.56 126.03 192.83 124.94 192.97 124.40 C 190.03 122.16 186.15 120.97 183.89 117.95 C 179.91 111.08 184.11 102.88 187.92 97.01 M 155.79 195.34 C 151.92 196.15 148.77 200.02 148.97 204.01 C 148.21 209.32 152.67 214.99 158.06 215.05 C 163.88 216.10 169.70 210.99 169.07 205.12 C 170.36 201.03 167.17 198.30 164.71 195.85 C 161.99 194.18 158.68 195.20 155.79 195.34 M 247.82 195.31 C 240.88 196.63 238.51 206.61 243.60 211.27 C 246.18 214.81 250.96 215.99 255.03 214.47 C 262.54 211.96 263.44 199.93 256.75 195.97 C 254.20 194.06 250.62 195.33 247.82 195.31 M 201.55 224.44 C 197.16 225.00 193.05 227.10 189.52 229.67 C 188.30 231.30 189.71 233.42 191.70 232.95 C 195.93 231.13 199.82 227.63 204.82 228.88 C 209.80 228.10 213.81 231.35 218.20 232.98 C 220.07 232.91 220.70 229.97 219.15 229.04 C 214.28 225.23 207.68 223.17 201.55 224.44 M 269.35 228.30 C 267.77 228.60 266.27 229.23 265.01 230.21 C 264.65 234.51 271.13 233.47 273.06 230.93 C 272.54 229.02 271.56 227.22 269.35 228.30 Z" />
</g>
<g id="#202225fe">
<path fill="#202225" opacity="1.00" d=" M 304.18 112.18 C 306.74 111.77 309.67 115.24 308.73 117.84 C 307.22 118.02 305.28 118.26 304.53 116.57 C 303.51 115.42 301.97 112.91 304.18 112.18 Z" />
</g>
<g id="#32353aff">
<path fill="#32353a" opacity="1.00" d=" M 96.24 123.07 C 99.26 121.95 100.73 125.15 99.95 127.66 C 98.77 128.40 97.45 128.95 96.05 129.08 C 94.65 127.42 94.29 124.45 96.24 123.07 Z" />
</g>
<g id="#202226ff">
<path fill="#202226" opacity="1.00" d=" M 201.55 224.44 C 207.68 223.17 214.28 225.23 219.15 229.04 C 220.70 229.97 220.07 232.91 218.20 232.98 C 213.81 231.35 209.80 228.10 204.82 228.88 C 199.82 227.63 195.93 231.13 191.70 232.95 C 189.71 233.42 188.30 231.30 189.52 229.67 C 193.05 227.10 197.16 225.00 201.55 224.44 Z" />
</g>
<g id="#212326ff">
<path fill="#212326" opacity="1.00" d=" M 269.35 228.30 C 271.56 227.22 272.54 229.02 273.06 230.93 C 271.13 233.47 264.65 234.51 265.01 230.21 C 266.27 229.23 267.77 228.60 269.35 228.30 Z" />
</g>
</svg>
